<svg width="122" height="66" viewBox="0 0 122 66" fill="none" xmlns="http://www.w3.org/2000/svg">
<path d="M0 33C0 14.7746 14.7746 0 33 0H122V66H33C14.7746 66 0 51.2254 0 33Z" fill="#62DDB1" fill-opacity="0.8"/>
<path fill-rule="evenodd" clip-rule="evenodd" d="M71.6786 19.036C71.3195 19.6055 74.3854 22.869 78.4912 26.2869L85.9572 32.5018L59.9792 32.8028C37.7831 33.0601 34 33.3477 34 34.782C34 36.2084 37.8869 36.5441 59.856 37.0195L85.712 37.5789L78.3054 43.5254C72.2647 48.3753 71.1473 49.7649 72.2464 51.0638C73.3992 52.4265 74.0263 52.3482 76.5997 50.5212C83.3176 45.7506 95 35.7855 95 34.8245C95 33.3387 75.7616 18 73.8986 18C73.0366 18 72.0366 18.4665 71.6786 19.036Z" fill="black"/>
</svg>
