<svg width="195" height="47" viewBox="0 0 195 47" fill="none" xmlns="http://www.w3.org/2000/svg">
<path d="M0.38 0.999996H11.72V46H0.38V0.999996ZM18.3177 31.3H29.7777C29.9777 32.66 30.5977 33.86 31.6377 34.9C32.6777 35.94 34.0577 36.74 35.7777 37.3C37.5377 37.86 39.5777 38.14 41.8977 38.14C45.2177 38.14 47.8177 37.68 49.6977 36.76C51.6177 35.84 52.5777 34.54 52.5777 32.86C52.5777 31.58 52.0177 30.6 50.8977 29.92C49.8177 29.2 47.7777 28.68 44.7777 28.36L36.0777 27.46C30.0377 26.86 25.6577 25.46 22.9377 23.26C20.2577 21.06 18.9177 18.06 18.9177 14.26C18.9177 11.26 19.7977 8.7 21.5577 6.58C23.3577 4.46 25.8577 2.84 29.0577 1.72C32.2977 0.599998 36.0777 0.0399981 40.3977 0.0399981C44.6777 0.0399981 48.4577 0.659998 51.7377 1.9C55.0177 3.14 57.6377 4.86 59.5977 7.06C61.5577 9.26 62.6177 11.84 62.7777 14.8H51.3177C51.1577 13.56 50.5977 12.52 49.6377 11.68C48.7177 10.8 47.4577 10.12 45.8577 9.64C44.2977 9.12 42.4177 8.86 40.2177 8.86C37.1777 8.86 34.7577 9.3 32.9577 10.18C31.1977 11.02 30.3177 12.24 30.3177 13.84C30.3177 15.04 30.8377 15.98 31.8777 16.66C32.9577 17.34 34.8577 17.84 37.5777 18.16L46.7577 19.18C50.9577 19.62 54.3177 20.32 56.8377 21.28C59.3577 22.24 61.1777 23.56 62.2977 25.24C63.4177 26.92 63.9777 29.04 63.9777 31.6C63.9777 34.68 63.0377 37.38 61.1577 39.7C59.3177 41.98 56.7177 43.76 53.3577 45.04C50.0377 46.32 46.1577 46.96 41.7177 46.96C37.1177 46.96 33.0777 46.3 29.5977 44.98C26.1577 43.66 23.4377 41.84 21.4377 39.52C19.4777 37.16 18.4377 34.42 18.3177 31.3ZM70.4581 0.999996H81.7981V46H70.4581V0.999996ZM112.516 0.999996C117.796 0.999996 122.416 1.94 126.376 3.82C130.336 5.7 133.416 8.32 135.616 11.68C137.856 15.04 138.976 18.98 138.976 23.5C138.976 27.98 137.856 31.92 135.616 35.32C133.416 38.68 130.336 41.3 126.376 43.18C122.416 45.06 117.796 46 112.516 46H90.5558V0.999996H112.516ZM101.836 41.38L96.3158 35.98H113.356C116.236 35.98 118.736 35.46 120.856 34.42C122.976 33.38 124.616 31.94 125.776 30.1C126.936 28.22 127.516 26.02 127.516 23.5C127.516 20.94 126.936 18.74 125.776 16.9C124.616 15.06 122.976 13.62 120.856 12.58C118.736 11.54 116.236 11.02 113.356 11.02H96.3158L101.836 5.62V41.38ZM151.039 36.94V27.76H182.119V36.94H151.039ZM174.199 0.999996L194.959 46H182.899L165.079 5.74H168.559L150.799 46H138.679L159.499 0.999996H174.199Z" fill="#62DDB1"/>
</svg>
